<?xml version="1.0" encoding="UTF-8"?>
<svg width="52px" height="37px" viewBox="0 0 52 37" version="1.1" xmlns="http://www.w3.org/2000/svg" xmlns:xlink="http://www.w3.org/1999/xlink">
    <!-- Generator: Sketch 52.6 (67491) - http://www.bohemiancoding.com/sketch -->
    <title>Icons/QuoteMark</title>
    <desc>Created with Sketch.</desc>
    <g id="Icons/QuoteMark" stroke="none" stroke-width="1" fill="none" fill-rule="evenodd">
        <path d="M26.52,26.13 C26.52,16.12 34.84,5.33 45.63,-7.10542736e-14 L51.48,6.24 C46.8,8.32 40.82,12.48 38.74,17.16 C39,17.03 39.78,17.03 40.04,17.03 C44.33,17.03 48.1,19.89 48.1,25.48 C48.1,31.59 42.38,36.66 36.53,36.66 C31.33,36.66 26.52,33.02 26.52,26.13 Z M-2.16715534e-13,26.13 C-2.16715534e-13,16.12 8.32,5.33 19.11,-7.10542736e-14 L25.09,6.24 C20.41,8.32 14.43,12.48 12.35,17.16 C12.61,17.03 13.39,17.03 13.65,17.03 C17.94,17.03 21.71,19.89 21.71,25.48 C21.71,31.59 15.99,36.66 10.14,36.66 C4.94,36.66 -2.16715534e-13,33.02 -2.16715534e-13,26.13 Z" id="“" fill="#C25D0A"></path>
    </g>
</svg>